<svg xmlns="http://www.w3.org/2000/svg" viewBox="0 0 31.38 29.14"><title>star</title><g id="Layer_2" data-name="Layer 2"><g id="Layer_1-2" data-name="Layer 1"><path d="M30.19,10.09H19.89L16.76.74a1.14,1.14,0,0,0-2.13,0L11.5,10.09H1.12A1.12,1.12,0,0,0,0,11.21a1.23,1.23,0,0,0,0,.19,1.07,1.07,0,0,0,.47.79l8.47,6L5.71,27.61a1.13,1.13,0,0,0,.38,1.26,1.08,1.08,0,0,0,.63.27,1.32,1.32,0,0,0,.7-.25L15.69,23,24,28.89a1.24,1.24,0,0,0,.7.25,1,1,0,0,0,.62-.27,1.1,1.1,0,0,0,.38-1.26l-3.25-9.45,8.4-6L31,12a1.22,1.22,0,0,0,.37-.75,1.19,1.19,0,0,0-1.19-1.12"/></g></g></svg>